/* XPM */
static char *_9db0069861348b7b54ae0efbd35c14ftDzymXW8XWmZvCH2[] = {
/* columns rows colors chars-per-pixel */
"32 32 60 1 ",
"  c #0E0E0E",
". c #111111",
"X c #151515",
"o c #1B1B1B",
"O c gray12",
"+ c gray13",
"@ c #272727",
"# c #282828",
"$ c gray18",
"% c #313131",
"& c gray21",
"* c gray23",
"= c gray24",
"- c #434343",
"; c #444444",
": c gray29",
"> c #4C4C4C",
", c gray32",
"< c gray33",
"1 c gray35",
"2 c gray37",
"3 c #646464",
"4 c #656565",
"5 c #686868",
"6 c #6D6D6D",
"7 c #727272",
"8 c #747474",
"9 c #797979",
"0 c #838383",
"q c #848484",
"w c #888888",
"e c gray56",
"r c #909090",
"t c gray59",
"y c #9B9B9B",
"u c gray62",
"i c gray63",
"p c gray65",
"a c gray67",
"s c gray68",
"d c #B2B2B2",
"f c #B6B6B6",
"g c gray73",
"h c #BCBCBC",
"j c #C3C3C3",
"k c #C5C5C5",
"l c #CACACA",
"z c gray80",
"x c LightGray",
"c c gray83",
"v c gray86",
"b c gray87",
"n c gray88",
"m c #E7E7E7",
"M c gray92",
"N c #EFEFEF",
"B c gray95",
"V c gray97",
"C c #F9F9F9",
"Z c white",
/* pixels */
"ZZZZZZZZZZZZZZZZZZZZZZZZZZZZZZZZ",
"ZZZZZZZZCCBCZZZZZZZZZZZZZZZZZZZZ",
"ZZZZZZZZxq,yZZZZZZZZZZZZZZZZZZZZ",
"ZZZZZZZZV4 &vZZZZZZZZZZZZZZZZZZZ",
"ZZZZZZZZZl#.9CZZZZZZZZZZZZZZZZZZ",
"ZZZZZZZZZZqX@jZZZZZZZZZZZZZZZZZZ",
"ZZZZZZZZZZb*.2VZZZZZZZZZZZZZZZZZ",
"ZZZZZZZZZZZuooaZZZZZZZZZZZNazZZZ",
"ZZZZZZZZZZZN,.;mZZZZZZZZCh,#lZZZ",
"ZZZZZZZZZZZZg+XeZZZZZZZc7+.oiZZZ",
"ZZZZZZZZZZZZC6.%cZZZZme$..-pBZZZ",
"ZZZZZZZZZZZZZx%.8ZZBa-X.$emZZZZZ",
"ZZZZZZZZZZZZZM5@,dj2o +7xZZZZZZZ",
"ZZZZZZZZZZZZN0-4<:+.o<hCZZZZZZZZ",
"ZZZZZZZZZZVf:#<77,+&uBZZZZZZZZZZ",
"ZZZZZZZZZz5O.+155:<1bZZZZZZZZZZZ",
"ZZZZZZZnq# X&>56&215MZZZZZZZZZZZ",
"ZZZZZBi=X.&0=X@=.$&&mZZZZZZZZZZZ",
"ZZZCg,X.@8bx=1o=+o-&cZZZZZZZZZZZ",
"ZZZi+.O1jZZg>sO+-X@;jZZZZZZZZZZZ",
"ZZZh+-aBZZZi@;o.*#.=hZZZZZZZZZZZ",
"ZZZltmZZZZZ9..O2#-oopZZZZZZZZZZZ",
"ZZZCZZZZZZC2.X#f%$&.>MZZZZZZZZZZ",
"ZZZZZZZZZZM=.XO5-o-OXtZZZZZZZZZZ",
"ZZZZZZZZZZz#&o<nn,#=X&vZZZZZZZZZ",
"ZZZZZZZZZZp#s$wZZw.=@.8CZZZZZZZZ",
"ZZZZZZZZZZ8O7@eZZw.+-*8vZZZZZZZZ",
"ZZZZZZZZZB: ..eZZw.X#4MVZZZZZZZZ",
"ZZZZZZZZZv,---8pp8-;-<bZZZZZZZZZ",
"ZZZZZZZZZq%&&&%%%%%&%%rZZZZZZZZZ",
"ZZZZZZZZZjyuuuuuuuuuuukZZZZZZZZZ",
"ZZZZZZZZZZZZZZZZZZZZZZZZZZZZZZZZ"
};
