/* XPM */
static char *_f1a94dc3f574827b668b3d6af4b5491Q2jA5UftrwpWry7e[] = {
/* columns rows colors chars-per-pixel */
"16 16 48 1 ",
"  c #111111",
". c #222222",
"X c #252525",
"o c #2F2F2F",
"O c #323232",
"+ c #373737",
"@ c gray23",
"# c #3F3F3F",
"$ c gray25",
"% c #464646",
"& c #4B4B4B",
"* c gray31",
"= c gray32",
"- c gray33",
"; c #585858",
": c gray37",
"> c #606060",
", c #6A6A6A",
"< c #6C6C6C",
"1 c gray46",
"2 c #7C7C7C",
"3 c #838383",
"4 c gray54",
"5 c #8D8D8D",
"6 c #939393",
"7 c #9B9B9B",
"8 c gray64",
"9 c gray65",
"0 c gray67",
"q c #ACACAC",
"w c gray70",
"e c #BBBBBB",
"r c #BCBCBC",
"t c #C3C3C3",
"y c gray78",
"u c gray79",
"i c #CBCBCB",
"p c #D2D2D2",
"a c gray84",
"s c #DADADA",
"d c #E1E1E1",
"f c #E7E7E7",
"g c #E9E9E9",
"h c #EAEAEA",
"j c #F3F3F3",
"k c gray97",
"l c gray99",
"z c white",
/* pixels */
"zzzzkjzzzzzzzzzz",
"zzzzw>gzzzzzzzzz",
"zzzzf$6zzzzzzzzz",
"zzzzz9@szzzzzdgz",
"zzzzzj;1zzzg5%pz",
"zzzzzzt+ykq%%0kz",
"zzzzzzy=,:@5gzzz",
"zzzzf4@>;%uzzzzz",
"zzj9%#+%@;fzzzzz",
"zd;@6t:oX#szzzzz",
"zs3szrOoOouzzzzz",
"zzzzz7 -$X2zzzzz",
"zzzzz2#98oouzzzz",
"zzzzj=+re.%yzzzz",
"zzzzp&$<,$*azzzz",
"zzzzfeeweergzzzz"
};
