/* XPM */
static char *_fad0e26370c404ceece440fda60cd03kkjOCzdODKuYNR4j[] = {
/* columns rows colors chars-per-pixel */
"64 64 61 1 ",
"  c gray6",
". c #131313",
"X c #151515",
"o c #181818",
"O c #1E1E1E",
"+ c gray13",
"@ c #252525",
"# c #2A2A2A",
"$ c gray18",
"% c gray19",
"& c gray21",
"* c #3A3A3A",
"= c #3C3C3C",
"- c #414141",
"; c #444444",
": c #494949",
"> c #4C4C4C",
", c #515151",
"< c gray34",
"1 c #5B5B5B",
"2 c #5F5F5F",
"3 c #626262",
"4 c #646464",
"5 c #686868",
"6 c #6C6C6C",
"7 c gray45",
"8 c #747474",
"9 c gray48",
"0 c #7E7E7E",
"q c gray51",
"w c gray52",
"e c #888888",
"r c #8D8D8D",
"t c #909090",
"y c gray59",
"u c gray60",
"i c gray62",
"p c #A2A2A2",
"a c gray65",
"s c gray67",
"d c #AFAFAF",
"f c #B2B2B2",
"g c gray71",
"h c gray73",
"j c gray75",
"k c #C3C3C3",
"l c #C6C6C6",
"z c #CBCBCB",
"x c gray81",
"c c gray82",
"v c gray84",
"b c #DADADA",
"n c #DFDFDF",
"m c gray89",
"M c #E6E6E6",
"N c gray92",
"B c #EFEFEF",
"V c #F3F3F3",
"C c #F6F6F6",
"Z c #FBFBFB",
"A c white",
/* pixels */
"AAAAAAAAAAAAAAAAAAAAAAAAAAAAAAAAAAAAAAAAAAAAAAAAAAAAAAAAAAAAAAAA",
"AAAAAAAAAAAAAAAAAAAAAAAAAAAAAAAAAAAAAAAAAAAAAAAAAAAAAAAAAAAAAAAA",
"AAAAAAAAAAAAAAAAAAAAAAAAAAAAAAAAAAAAAAAAAAAAAAAAAAAAAAAAAAAAAAAA",
"AAAAAAAAAAAAAAAAAZZAANCAAAAAAAAAAAAAAAAAAAAAAAAAAAAAAAAAAAAAAAAA",
"AAAAAAAAAAAAAAAAAydBy=wAAAAAAAAAAAAAAAAAAAAAAAAAAAAAAAAAAAAAAAAA",
"AAAAAAAAAAAAAAAAAf-:X.@lAAAAAAAAAAAAAAAAAAAAAAAAAAAAAAAAAAAAAAAA",
"AAAAAAAAAAAAAAAAAC4.Xo.2VAAAAAAAAAAAAAAAAAAAAAAAAAAAAAAAAAAAAAAA",
"AAAAAAAAAAAAAAAAAAx$XXXOsAAAAAAAAAAAAAAAAAAAAAAAAAAAAAAAAAAAAAAA",
"AAAAAAAAAAAAAAAAAAAqXXXX;NAAAAAAAAAAAAAAAAAAAAAAAAAAAAAAAAAAAAAA",
"AAAAAAAAAAAAAAAAAAAm=.XXXtAAAAAAAAAAAAAAAAAAAAAAAAAAAAAAAAAAAAAA",
"AAAAAAAAAAAAAAAAAAAApoXXX%vAAAAAAAAAAAAAAAAAAAAAAAAAAAAAAAAAAAAA",
"AAAAAAAAAAAAAAAAAAAAV<.XX.7ZAAAAAAAAAAAAAAAAAAAAAAAAAAAAAAAAAAAA",
"AAAAAAAAAAAAAAAAAAAAAh+XXX@kAAAAAAAAAAAAAAAAAAAAAAAAAAAAAAAAAAAA",
"AAAAAAAAAAAAAAAAAAAAAZ7.Xo.<VAAAAAAAAAAAAAAAAAAAAAAAAAAAAAAAAAAA",
"AAAAAAAAAAAAAAAAAAAAAAv$XXXoaAAAAAAAAAAAAAAAAAAAAAAAAAAvsCAAAAAA",
"AAAAAAAAAAAAAAAAAAAAAAArXXXX=mAAAAAAAAAAAAAAAAAAAAAAANt-eCAAAAAA",
"AAAAAAAAAAAAAAAAAAAAAAAM;.XXXeAAAAAAAAAAAAAAAAAAAAAVd;X=MAAAAAAA",
"AAAAAAAAAAAAAAAAAAAAAAAAsoXXX%xAAAAAAAAAAAAAAAAAAAl3OXXotAAAAAAA",
"AAAAAAAAAAAAAAAAAAAAAAAAV1XXXX6ZAAAAAAAAAAAAAAAAn0#.XXX.*mAAAAAA",
"AAAAAAAAAAAAAAAAAAAAAAAAAk@XXX+hAAAAAAAAAAAAAABu&.XXXXXX2NAAAAAA",
"AAAAAAAAAAAAAAAAAAAAAAAAAZ8XoXX,BAAAAAAAAAAAZg>o.XXXXX*iBAAAAAAA",
"AAAAAAAAAAAAAAAAAAAAAAAAAAb&XXXoiAAAAAAAAAAx5O.XXXXX#qmAAAAAAAAA",
"AAAAAAAAAAAAAAAAAAAAAAAAAAAyXXoX*mAAAAAAAmq#XXXXXXO4xZAAAAAAAAAA",
"AAAAAAAAAAAAAAAAAAAAAAAAAAAN:XXX.wAAAAABp=XXXoXXo>gCAAAAAAAAAAAA",
"AAAAAAAAAAAAAAAAAAAAAAAAAAAAfOXX+wBAAZh<oXoXoXX&yBAAAAAAAAAAAAAA",
"AAAAAAAAAAAAAAAAAAAAAAAAAAAby,o>7-=ac6+.XXXX.#9bAAAAAAAAAAAAAAAA",
"AAAAAAAAAAAAAAAAAAAAAAAAAAx:o5-q#@14%XXXXoXo2lZAAAAAAAAAAAAAAAAA",
"AAAAAAAAAAAAAAAAAAAAAAAAAnq6#*095q:oXXXXXX;dCAAAAAAAAAAAAAAAAAAA",
"AAAAAAAAAAAAAAAAAAAAAAABi=X*4#8539q>XXXX%tNAAAAAAAAAAAAAAAAAAAAA",
"AAAAAAAAAAAAAAAAAAAAACh,oXXX3q7q86*7@.#5vAAAAAAAAAAAAAAAAAAAAAAA",
"AAAAAAAAAAAAAAAAAAAAc6+XXoXX+>e46e@=6<63mAAAAAAAAAAAAAAAAAAAAAAA",
"AAAAAAAAAAAAAAAAAAMe$.XXXXX+<6-=q,2O->@odAAAAAAAAAAAAAAAAAAAAAAA",
"AAAAAAAAAAAAAAAAVa-XXoXXXo-thuiy4O7irrruvAAAAAAAAAAAAAAAAAAAAAAA",
"AAAAAAAAAAAAAAZj1oXXXXXX&51%$;w=XX%0&$$4CAAAAAAAAAAAAAAAAAAAAAAA",
"AAAAAAAAAAAAAv7@.XXXXX@66%XX.=1.XoX1;..-BAAAAAAAAAAAAAAAAAAAAAAA",
"AAAAAAAAAAANr%.XXXX.o2lb$.XXXO5#XXX@6+X%mAAAAAAAAAAAAAAAAAAAAAAA",
"AAAAAAAAAVs;XXXoXXX-sVAz+o$OXX-3XXXX><.#vAAAAAAAAAAAAAAAAAAAAAAA",
"AAAAAAAZl1O.oXXXX%rMAAAgX;b6XXo4&XXoO6$ojAAAAAAAAAAAAAAAAAAAAAAA",
"AAAAAAVq@XXXXX.+7cAAAAAu.1Ae.XX&5oXXX=3osAAAAAAAAAAAAAAAAAAAAAAA",
"AAAAAAc@XXXX.o<hZAAAAAAq 2Ar.XXX2;XXXX3*eAAAAAAAAAAAAAAAAAAAAAAA",
"AAAAAAC5XXXX=pVAAAAAAAZ3.*t<XXXX@6+XXX$48AAAAAAAAAAAAAAAAAAAAAAA",
"AAAAAAAc$.#wmAAAAAAAAAV;XXXXXXXXX>,XXoX<wCAAAAAAAAAAAAAAAAAAAAAA",
"AAAAAAZs&4xAAAAAAAAAAAm%XXoXXo@@XO6#XXX+rCAAAAAAAAAAAAAAAAAAAAAA",
"AAAAAAV0fCAAAAAAAAAAAAlOXXXXooph@X=3XXXX>NAAAAAAAAAAAAAAAAAAAAAA",
"AAAAAAAZAAAAAAAAAAAAAAaXXXooXOlM%XX4*XoXoyAAAAAAAAAAAAAAAAAAAAAA",
"AAAAAAAAAAAAAAAAAAAAAAq.oXXXXOlN%XX$5oXX.*bAAAAAAAAAAAAAAAAAAAAA",
"AAAAAAAAAAAAAAAAAAAAAZ1.oXXXXo60+XXX1;XoXX9ZAAAAAAAAAAAAAAAAAAAA",
"AAAAAAAAAAAAAAAAAAAAAM&.XXoXXX#<1#XX@6+XXX#lAAAAAAAAAAAAAAAAAAAA",
"AAAAAAAAAAAAAAAAAAAAAz+XX.XXX:cZZz-.X:<XXX.2CAAAAAAAAAAAAAAAAAAA",
"AAAAAAAAAAAAAAAAAAAAApXX:<oXOhAAAAfOXO5$XXXOsAAAAAAAAAAAAAAAAAAA",
"AAAAAAAAAAAAAAAAAAAAA8.Ohn$.&MAAAAm$.X*4XXoX;NAAAAAAAAAAAAAAAAAA",
"AAAAAAAAAAAAAAAAAAAAV:.Olm$.*NAAAAm%XXX3=XXXXrAAAAAAAAAAAAAAAAAA",
"AAAAAAAAAAAAAAAAAAAAb$XOhb$.*MAAAAm%XXX$6oXX@=vAAAAAAAAAAAAAAAAA",
"AAAAAAAAAAAAAAAAAAAAdoXo-;O.*NAAAAM%XXXX<,@5xqtAAAAAAAAAAAAAAAAA",
"AAAAAAAAAAAAAAAAAAAAq.XXXXXX*NAAAAm%XXXXO37sABNAAAAAAAAAAAAAAAAA",
"AAAAAAAAAAAAAAAAAAAC,.XXXXXX*MAAAAm%XXoXXXX2ZAAAAAAAAAAAAAAAAAAA",
"AAAAAAAAAAAAAAAAAAAb#.XX.X..$flkkkd@..X....%MAAAAAAAAAAAAAAAAAAA",
"AAAAAAAAAAAAAAAAAAZx099999900qwwwwq00990009qcAAAAAAAAAAAAAAAAAAA",
"AAAAAAAAAAAAAAAAAAx:;;::::;::;;;;;;;:;;:;::;,bAAAAAAAAAAAAAAAAAA",
"AAAAAAAAAAAAAAAAAAjX. . .  . .. ...... .  ..+xAAAAAAAAAAAAAAAAAA",
"AAAAAAAAAAAAAAAAAAx,,>,>>>,>>,>,,>,>>>,>>,>>1bAAAAAAAAAAAAAAAAAA",
"AAAAAAAAAAAAAAAAAAZCCCCCCCCCVCCCCCCCCCCCCCCCCAAAAAAAAAAAAAAAAAAA",
"AAAAAAAAAAAAAAAAAAAAAAAAAAAAAAAAAAAAAAAAAAAAAAAAAAAAAAAAAAAAAAAA",
"AAAAAAAAAAAAAAAAAAAAAAAAAAAAAAAAAAAAAAAAAAAAAAAAAAAAAAAAAAAAAAAA"
};
