/* XPM */
static char *c72d52e6e26c4ef799ebf4cbedd62672DAmPbXwzDjgoWeIh[] = {
/* columns rows colors chars-per-pixel */
"128 128 61 1 ",
"  c gray6",
". c #131313",
"X c #161616",
"o c #191919",
"O c #1E1E1E",
"+ c #202020",
"@ c gray15",
"# c gray17",
"$ c #2F2F2F",
"% c #313131",
"& c #353535",
"* c gray23",
"= c gray24",
"- c #434343",
"; c #444444",
": c #494949",
"> c #4C4C4C",
", c gray32",
"< c #555555",
"1 c #5A5A5A",
"2 c #5D5D5D",
"3 c gray38",
"4 c gray40",
"5 c #6A6A6A",
"6 c #6C6C6C",
"7 c #717171",
"8 c #767676",
"9 c #7B7B7B",
"0 c #7E7E7E",
"q c #808080",
"w c #848484",
"e c #8B8B8B",
"r c gray56",
"t c gray57",
"y c gray59",
"u c #9A9A9A",
"i c gray62",
"p c #A0A0A0",
"a c #A7A7A7",
"s c gray67",
"d c #AEAEAE",
"f c gray69",
"g c gray71",
"h c gray72",
"j c #BCBCBC",
"k c #C0C0C0",
"l c gray77",
"z c #CBCBCB",
"x c gray80",
"c c gray82",
"v c #D7D7D7",
"b c #D8D8D8",
"n c #DFDFDF",
"m c gray89",
"M c #E4E4E4",
"N c gray91",
"B c #EEEEEE",
"V c #F3F3F3",
"C c #F4F4F4",
"Z c #F8F8F8",
"A c white",
/* pixels */
"AAAAAAAAAAAAAAAAAAAAAAAAAAAAAAAAAAAAAAAAAAAAAAAAAAAAAAAAAAAAAAAAAAAAAAAAAAAAAAAAAAAAAAAAAAAAAAAAAAAAAAAAAAAAAAAAAAAAAAAAAAAAAAAA",
"AAAAAAAAAAAAAAAAAAAAAAAAAAAAAAAAAAAAAAAAAAAAAAAAAAAAAAAAAAAAAAAAAAAAAAAAAAAAAAAAAAAAAAAAAAAAAAAAAAAAAAAAAAAAAAAAAAAAAAAAAAAAAAAA",
"AAAAAAAAAAAAAAAAAAAAAAAAAAAAAAAAAAAAAAAAAAAAAAAAAAAAAAAAAAAAAAAAAAAAAAAAAAAAAAAAAAAAAAAAAAAAAAAAAAAAAAAAAAAAAAAAAAAAAAAAAAAAAAAA",
"AAAAAAAAAAAAAAAAAAAAAAAAAAAAAAAAAAAAAAAAAAAAAAAAAAAAAAAAAAAAAAAAAAAAAAAAAAAAAAAAAAAAAAAAAAAAAAAAAAAAAAAAAAAAAAAAAAAAAAAAAAAAAAAA",
"AAAAAAAAAAAAAAAAAAAAAAAAAAAAAAAAAAAAAAAAAAAAAAAAAAAAAAAAAAAAAAAAAAAAAAAAAAAAAAAAAAAAAAAAAAAAAAAAAAAAAAAAAAAAAAAAAAAAAAAAAAAAAAAA",
"AAAAAAAAAAAAAAAAAAAAAAAAAAAAAAAAAAAAAAAAAAAAAAAAAAAAAAAAAAAAAAAAAAAAAAAAAAAAAAAAAAAAAAAAAAAAAAAAAAAAAAAAAAAAAAAAAAAAAAAAAAAAAAAA",
"AAAAAAAAAAAAAAAAAAAAAAAAAAAAAAAAAAAAAAAAAAAAAAAAAAAAAAAAAAAAAAAAAAAAAAAAAAAAAAAAAAAAAAAAAAAAAAAAAAAAAAAAAAAAAAAAAAAAAAAAAAAAAAAA",
"AAAAAAAAAAAAAAAAAAAAAAAAAAAAAAAAAAAAZAAAAACMCAAAAAAAAAAAAAAAAAAAAAAAAAAAAAAAAAAAAAAAAAAAAAAAAAAAAAAAAAAAAAAAAAAAAAAAAAAAAAAAAAAA",
"AAAAAAAAAAAAAAAAAAAAAAAAAAAAAAAAAAmqdAAAZl2$6BAAAAAAAAAAAAAAAAAAAAAAAAAAAAAAAAAAAAAAAAAAAAAAAAAAAAAAAAAAAAAAAAAAAAAAAAAAAAAAAAAA",
"AAAAAAAAAAAAAAAAAAAAAAAAAAAAAAAAAAsX-MAb9@XXXtAAAAAAAAAAAAAAAAAAAAAAAAAAAAAAAAAAAAAAAAAAAAAAAAAAAAAAAAAAAAAAAAAAAAAAAAAAAAAAAAAA",
"AAAAAAAAAAAAAAAAAAAAAAAAAAAAAAAAAAB<.wu&XXXXX&vAAAAAAAAAAAAAAAAAAAAAAAAAAAAAAAAAAAAAAAAAAAAAAAAAAAAAAAAAAAAAAAAAAAAAAAAAAAAAAAAA",
"AAAAAAAAAAAAAAAAAAAAAAAAAAAAAAAAAAAh+Oo.XXXXX.8AAAAAAAAAAAAAAAAAAAAAAAAAAAAAAAAAAAAAAAAAAAAAAAAAAAAAAAAAAAAAAAAAAAAAAAAAAAAAAAAA",
"AAAAAAAAAAAAAAAAAAAAAAAAAAAAAAAAAAAZ6..XXXXXXX@kAAAAAAAAAAAAAAAAAAAAAAAAAAAAAAAAAAAAAAAAAAAAAAAAAAAAAAAAAAAAAAAAAAAAAAAAAAAAAAAA",
"AAAAAAAAAAAAAAAAAAAAAAAAAAAAAAAAAAAAc$.XXXXXXX.1VAAAAAAAAAAAAAAAAAAAAAAAAAAAAAAAAAAAAAAAAAAAAAAAAAAAAAAAAAAAAAAAAAAAAAAAAAAAAAAA",
"AAAAAAAAAAAAAAAAAAAAAAAAAAAAAAAAAAAAAeXXXXXXXXXoaAAAAAAAAAAAAAAAAAAAAAAAAAAAAAAAAAAAAAAAAAAAAAAAAAAAAAAAAAAAAAAAAAAAAAAAAAAAAAAA",
"AAAAAAAAAAAAAAAAAAAAAAAAAAAAAAAAAAAAAM-.XXXXXXX.;MAAAAAAAAAAAAAAAAAAAAAAAAAAAAAAAAAAAAAAAAAAAAAAAAAAAAAAAAAAAAAAAAAAAAAAAAAAAAAA",
"AAAAAAAAAAAAAAAAAAAAAAAAAAAAAAAAAAAAAAaoXXXXXXXXXeAAAAAAAAAAAAAAAAAAAAAAAAAAAAAAAAAAAAAAAAAAAAAAAAAAAAAAAAAAAAAAAAAAAAAAAAAAAAAA",
"AAAAAAAAAAAAAAAAAAAAAAAAAAAAAAAAAAAAAAV1.XXXXXXXX%cAAAAAAAAAAAAAAAAAAAAAAAAAAAAAAAAAAAAAAAAAAAAAAAAAAAAAAAAAAAAAAAAAAAAAAAAAAAAA",
"AAAAAAAAAAAAAAAAAAAAAAAAAAAAAAAAAAAAAAAk@XXXXXXXX.6ZAAAAAAAAAAAAAAAAAAAAAAAAAAAAAAAAAAAAAAAAAAAAAAAAAAAAAAAAAAAAAAAAAAAAAAAAAAAA",
"AAAAAAAAAAAAAAAAAAAAAAAAAAAAAAAAAAAAAAAZ8.XXXXXXXX@hAAAAAAAAAAAAAAAAAAAAAAAAAAAAAAAAAAAAAAAAAAAAAAAAAAAAAAAAAAAAAAAAAAAAAAAAAAAA",
"AAAAAAAAAAAAAAAAAAAAAAAAAAAAAAAAAAAAAAAAc&XXXXXXXX.<BAAAAAAAAAAAAAAAAAAAAAAAAAAAAAAAAAAAAAAAAAAAAAAAAAAAAAAAAAAAAAAAAAAAAAAAAAAA",
"AAAAAAAAAAAAAAAAAAAAAAAAAAAAAAAAAAAAAAAAAtXXXXXXXXXoiAAAAAAAAAAAAAAAAAAAAAAAAAAAAAAAAAAAAAAAAAAAAAAAAAAAAAAAAAAAAAAAAAAAAAAAAAAA",
"AAAAAAAAAAAAAAAAAAAAAAAAAAAAAAAAAAAAAAAAAM:XXXXXXXX.=mAAAAAAAAAAAAAAAAAAAAAAAAAAAAAAAAAAAAAAAAAAAAAAAAAAAAAAAAAAAAAAAAAAAAAAAAAA",
"AAAAAAAAAAAAAAAAAAAAAAAAAAAAAAAAAAAAAAAAAAdOXXXXXXXXXqAAAAAAAAAAAAAAAAAAAAAAAAAAAAAAAAAAAAAAAAAAAAAAAAAAAAAAAAAAAAAAAAAAAAAAAAAA",
"AAAAAAAAAAAAAAAAAAAAAAAAAAAAAAAAAAAAAAAAAAC3.XXXXXXX.$zAAAAAAAAAAAAAAAAAAAAAAAAAAAAAAAAAAAAAAAAAAAAAAAAAAAAAAAAAAAAAAAAAAAAAAAAA",
"AAAAAAAAAAAAAAAAAAAAAAAAAAAAAAAAAAAAAAAAAAAz#XXXXXXXX.5CAAAAAAAAAAAAAAAAAAAAAAAAAAAAAAAAAAAAAAAAAAAAAAAAAAAAAAAAAAAAAAAAAAAAAAAA",
"AAAAAAAAAAAAAAAAAAAAAAAAAAAAAAAAAAAAAAAAAAAZ9.XXXXXXXX+gAAAAAAAAAAAAAAAAAAAAAAAAAAAAAAAAAAAAAAAAAAAAAAAAAAAAAAAAAAAAAAAAAAAAAAAA",
"AAAAAAAAAAAAAAAAAAAAAAAAAAAAAAAAAAAAAAAAAAAAb*.XXXXXXXX>NAAAAAAAAAAAAAAAAAAAAAAAAAAAAAAAAAAAAAAAAAAAAAAAAAAAAAAAAAAAAAAAAAAAAAAA",
"AAAAAAAAAAAAAAAAAAAAAAAAAAAAAAAAAAAAAAAAAAAAAuoXXXXXXXXouAAAAAAAAAAAAAAAAAAAAAAAAAAAAAAAAAAAAAAAAAAAAAAAAAAAAAAAMBAAAAAAAAAAAAAA",
"AAAAAAAAAAAAAAAAAAAAAAAAAAAAAAAAAAAAAAAAAAAAAN,.XXXXXXX.*bAAAAAAAAAAAAAAAAAAAAAAAAAAAAAAAAAAAAAAAAAAAAAAAAAAAABa-0ZAAAAAAAAAAAAA",
"AAAAAAAAAAAAAAAAAAAAAAAAAAAAAAAAAAAAAAAAAAAAAAg+XXXXXXXX.9ZAAAAAAAAAAAAAAAAAAAAAAAAAAAAAAAAAAAAAAAAAAAAAAAAACj<oo3VAAAAAAAAAAAAA",
"AAAAAAAAAAAAAAAAAAAAAAAAAAAAAAAAAAAAAAAAAAAAAAC5.XXXXXXX.#zAAAAAAAAAAAAAAAAAAAAAAAAAAAAAAAAAAAAAAAAAAAAAAAAv7@.*pBAAAAAAAAAAAAAA",
"AAAAAAAAAAAAAAAAAAAAAAAAAAAAAAAAAAAAAAAAAAAAAAAz$XXXXXXXX.2VAAAAAAAAAAAAAAAAAAAAAAAAAAAAAAAAAAAAAAAAAAAAAMr%XXX9AAAAAAAAAAAAAAAA",
"AAAAAAAAAAAAAAAAAAAAAAAAAAAAAAAAAAAAAAAAAAAAAAAAwXXXXXXXXXOdAAAAAAAAAAAAAAAAAAAAAAAAAAAAAAAAAAAAAAAAAAAVs;XXXXX%cAAAAAAAAAAAAAAA",
"AAAAAAAAAAAAAAAAAAAAAAAAAAAAAAAAAAAAAAAAAAAAAAAAn=.XXXXXXX.:NAAAAAAAAAAAAAAAAAAAAAAAAAAAAAAAAAAAAAAAAZk2O.XXXXX.8ZAAAAAAAAAAAAAA",
"AAAAAAAAAAAAAAAAAAAAAAAAAAAAAAAAAAAAAAAAAAAAAAAAAioXXXXXXXXXtAAAAAAAAAAAAAAAAAAAAAAAAAAAAAAAAAAAAAAAb9@XXXXXXXX.@jAAAAAAAAAAAAAA",
"AAAAAAAAAAAAAAAAAAAAAAAAAAAAAAAAAAAAAAAAAAAAAAAAAB<.XXXXXXXX&vAAAAAAAAAAAAAAAAAAAAAAAAAAAAAAAAAAAANu*.XXXXXXXXXX.1VAAAAAAAAAAAAA",
"AAAAAAAAAAAAAAAAAAAAAAAAAAAAAAAAAAAAAAAAAAAAAAAAAAh@XXXXXXXXX7ZAAAAAAAAAAAAAAAAAAAAAAAAAAAAAAAAACf>X.XXXXXXXXXXXX@xAAAAAAAAAAAAA",
"AAAAAAAAAAAAAAAAAAAAAAAAAAAAAAAAAAAAAAAAAAAAAAAAAAZ6.XXXXXXXX@jAAAAAAAAAAAAAAAAAAAAAAAAAAAAAAAAl4O.XXXXXXXXXXXXX.$vAAAAAAAAAAAAA",
"AAAAAAAAAAAAAAAAAAAAAAAAAAAAAAAAAAAAAAAAAAAAAAAAAAAc%.XXXXXXX.2VAAAAAAAAAAAAAAAAAAAAAAAAAAAAAn0#.XXXXXXXXXXXXX..-dZAAAAAAAAAAAAA",
"AAAAAAAAAAAAAAAAAAAAAAAAAAAAAAAAAAAAAAAAAAAAAAAAAAAArXXXXXXXXXOaAAAAAAAAAAAAAAAAAAAAAAAAAAABi=XXXXXXXXXXXXXXXX%emAAAAAAAAAAAAAAA",
"AAAAAAAAAAAAAAAAAAAAAAAAAAAAAAAAAAAAAAAAAAAAAAAAAAAAM-.XXXXXXX.-mAAAAAAAAAAAAAAAAAAAAAAAACh,oXXXXXXXXXXXXXX.@6cAAAAAAAAAAAAAAAAA",
"AAAAAAAAAAAAAAAAAAAAAAAAAAAAAAAAAAAAAAAAAAAAAAAAAAAAAsoXXXXXXXXXeAAAAAAAAAAAAAAAAAAAAAAAc6+.XXXXXXXXXXXXXXo,gCAAAAAAAAAAAAAAAAAA",
"AAAAAAAAAAAAAAAAAAAAAAAAAAAAAAAAAAAAAAAAAAAAAAAAAAAAAV2.XXXXXXX.$cAAAAAAAAAAAAAAAAAAAAmw$XXXXXXXXXXXXXXXX=pBAAAAAAAAAAAAAAAAAAAA",
"AAAAAAAAAAAAAAAAAAAAAAAAAAAAAAAAAAAAAAAAAAAAAAAAAAAAAAk@.XXXXXXXX6CAAAAAAAAAAAAAAAAAVa-X.XXXXXXXXXXXXX.#qmAAAAAAAAAAAAAAAAAAAAAA",
"AAAAAAAAAAAAAAAAAAAAAAAAAAAAAAAAAAAAAAAAAAAAAAAAAAAAAAA8.XXXXXXXX@hAAAAAAAAAAAAAAAZj<O.XXXXXXXXXXXXX.O5xAAAAAAAAAAAAAAAAAAAAAAAA",
"AAAAAAAAAAAAAAAAAAAAAAAAAAAAAAAAAAAAAAAAAAAAAAAAAAAAAAAv&.XXXXXXX.<BAAAAAAAAAAAAAv8@..XXXXXXXXXXXX.o,gCAAAAAAAAAAAAAAAAAAAAAAAAA",
"AAAAAAAAAAAAAAAAAAAAAAAAAAAAAAAAAAAAAAAAAAAAAAAAAAAAAAAAtoXXXXXXXXOdAAAAAAAAAAAMt%.XXXXXXXXXXXXXXX*uNAAAAAAAAAAAAAAAAAAAAAAAAAAA",
"AAAAAAAAAAAAAAAAAAAAAAAAAAAAAAAAAAAAAAAAAAAAAAAAAAAAAAAAN:XXXXXXXXOfAAAAAAAAAVs;X.XXXXXXXXXXXXXX#qbAAAAAAAAAAAAAAAAAAAAAAAAAAAAA",
"AAAAAAAAAAAAAAAAAAAAAAAAAAAAAAAAAAAAAAAAAAAAAAAAAAAAAAAAAfOXXXXX.#exmZAAAAAZl3OXXXXXXXXXXXXXX.O3zZAAAAAAAAAAAAAAAAAAAAAAAAAAAAAA",
"AAAAAAAAAAAAAAAAAAAAAAAAAAAAAAAAAAAAAAAAAAAAAAAAAAAAAAAANc3.XX.O5fe&%6gBAAb9@.XXXXXXXXXXXXXXo:dVAAAAAAAAAAAAAAAAAAAAAAAAAAAAAAAA",
"AAAAAAAAAAAAAAAAAAAAAAAAAAAAAAAAAAAAAAAAAAAAAAAAAAAAAACs;>d$Xo>sa:X.. @uNu&XXXXXXXXXXXXXXX.&tNAAAAAAAAAAAAAAAAAAAAAAAAAAAAAAAAAA",
"AAAAAAAAAAAAAAAAAAAAAAAAAAAAAAAAAAAAAAAAAAAAAAAAAAAAAm5O.Xeq.*x6O.XXX;up>XXXXXXXXXXXXXXX.@8bAAAAAAAAAAAAAAAAAAAAAAAAAAAAAAAAAAAA",
"AAAAAAAAAAAAAAAAAAAAAAAAAAAAAAAAAAAAAAAAAAAAAAAAAAAAn6@.X.%f=oi4..X%ef5+XXXXXXXXXXXXXX.O2kZAAAAAAAAAAAAAAAAAAAAAAAAAAAAAAAAAAAAA",
"AAAAAAAAAAAAAAAAAAAAAAAAAAAAAAAAAAAAAAAAAAAAAAAAAAAAbhh3XXX7y@tlq46fq$..XXXXXXXXXXXX.X;sVAAAAAAAAAAAAAAAAAAAAAAAAAAAAAAAAAAAAAAA",
"AAAAAAAAAAAAAAAAAAAAAAAAAAAAAAAAAAAAAAAAAAAAAAAAAAZh1#:g;.X@sgr,1iv>.OXXXXXXXXXXXXX.%rMAAAAAAAAAAAAAAAAAAAAAAAAAAAAAAAAAAAAAAAAA",
"AAAAAAAAAAAAAAAAAAAAAAAAAAAAAAAAAAAAAAAAAAAAAAAAZc6@...5iOXXtwo#@Or7<d>XXXXXXXXXX.@7vAAAAAAAAAAAAAAAAAAAAAAAAAAAAAAAAAAAAAAAAAAA",
"AAAAAAAAAAAAAAAAAAAAAAAAAAAAAAAAAAAAAAAAAAAAAAAme%XXXXX+s2.+d%>vz&-catd+XXXXXXX.o<hZAAAAAAAAAAAAAAAAAAAAAAAAAAAAAAAAAAAAAAAAAAAA",
"AAAAAAAAAAAAAAAAAAAAAAAAAAAAAAAAAAAAAAAAAAAAAVa-X.XXXXX.,f&7x@8AV,%g$oa6.XXXX.X-pBAAAAAAAAAAAAAAAAAAAAAAAAAAAAAAAAAAAAAAAAAAAAAA",
"AAAAAAAAAAAAAAAAAAAAAAAAAAAAAAAAAAAAAAAAAAAZk1O.XXXXXXXXoylid:@w9O2ro.;g%.XXX%qvAAAAAAAAAAAAAAAAAAAAAAAAAAAAAAAAAAAAAAAAAAAAAAAA",
"AAAAAAAAAAAAAAAAAAAAAAAAAAAAAAAAAAAAAAAAAAv8@.XXXXXXXXXXX&<o1g=oo:lq.XXreX.+5gw7VAAAAAAAAAAAAAAAAAAAAAAAAAAAAAAAAAAAAAAAAAAAAAAA",
"AAAAAAAAAAAAAAAAAAAAAAAAAAAAAAAAAAAAAAAANt&.XXXXXXXXXXXXX..*yjdyds8d%XX%sy0si;X@zAAAAAAAAAAAAAAAAAAAAAAAAAAAAAAAAAAAAAAAAAAAAAAA",
"AAAAAAAAAAAAAAAAAAAAAAAAAAAAAAAAAAAAAAVd:XXXXXXXXXXXXXXX.#0g8@@=d5.0eXXX%0e<o.X.wAAAAAAAAAAAAAAAAAAAAAAAAAAAAAAAAAAAAAAAAAAAAAAA",
"AAAAAAAAAAAAAAAAAAAAAAAAAAAAAAAAAAAAZl3O.XXXXXXXXXXXXX.O3de$ .. 2g+$f;  .   . . ,BAAAAAAAAAAAAAAAAAAAAAAAAAAAAAAAAAAAAAAAAAAAAAA",
"AAAAAAAAAAAAAAAAAAAAAAAAAAAAAAAAAAAb0@.XXXXXXXXXXXXXXo:dBd989890fu@.5f9999999998qBAAAAAAAAAAAAAAAAAAAAAAAAAAAAAAAAAAAAAAAAAAAAAA",
"AAAAAAAAAAAAAAAAAAAAAAAAAAAAAAAAANy*XXXXXXXXXXXXXXXX&rlvccccvVCh<oX.+fNvvcvccvvMAAAAAAAAAAAAAAAAAAAAAAAAAAAAAAAAAAAAAAAAAAAAAAAA",
"AAAAAAAAAAAAAAAAAAAAAAAAAAAAAAACf,XXXXXXXXXXXXXXX.@8f9$@@@@#ql6@.XXX.>h*@@@@@@+eAAAAAAAAAAAAAAAAAAAAAAAAAAAAAAAAAAAAAAAAAAAAAAAA",
"AAAAAAAAAAAAAAAAAAAAAAAAAAAAAZz4+.XXXXXXXXXXXXX.O2st*X.XXX.-d*.XXXXXXot9..XXXX 9AAAAAAAAAAAAAAAAAAAAAAAAAAAAAAAAAAAAAAAAAAAAAAAA",
"AAAAAAAAAAAAAAAAAAAAAAAAAAAAnq$.XXXXXXXXXXXXX.X;ip,oXXXXXX.5w.XXXXXXX.&g*XXXXX.3CAAAAAAAAAAAAAAAAAAAAAAAAAAAAAAAAAAAAAAAAAAAAAAA",
"AAAAAAAAAAAAAAAAAAAAAAAAAABi*X.XXXXXXXXXXXXX.$rb8O.XXXXXXXX:a@XXXXXXXXX9toXXXXX:BAAAAAAAAAAAAAAAAAAAAAAAAAAAAAAAAAAAAAAAAAAAAAAA",
"AAAAAAAAAAAAAAAAAAAAAAAAZh<o.XXXXXXXXXXXXX.+7vAm$.XXXXXXXXXou6XXXXXXXXX@d>.XXX.%MAAAAAAAAAAAAAAAAAAAAAAAAAAAAAAAAAAAAAAAAAAAAAAA",
"AAAAAAAAAAAAAAAAAAAAAAAc6+.XXXXXXXXXXXXXXo<jCAAx+XXXXXXXXXX.-f%.XXXXXXX.3a+XXX.#nAAAAAAAAAAAAAAAAAAAAAAAAAAAAAAAAAAAAAAAAAAAAAAA",
"AAAAAAAAAAAAAAAAAAAAAme$.XXXXXXXXXXXXX.X=pVAAAAdOXXX.XXXXXXXXweXXXXXXXXXOp5.XXX@vAAAAAAAAAAAAAAAAAAAAAAAAAAAAAAAAAAAAAAAAAAAAAAA",
"AAAAAAAAAAAAAAAAAAABp-X.XXXXXXXXXXXXX.$qnAAAAAAyXXXX#&oXXXXXX$f;.XXXXXXX.:f$.XX+hAAAAAAAAAAAAAAAAAAAAAAAAAAAAAAAAAAAAAAAAAAAAAAA",
"AAAAAAAAAAAAAAAAACj1o.XXXXXXXXXXXXX.+4xAAAAAAAAr.XX-zMwOXXXXX.5uO.XXXXXXXXrqXXXXuAAAAAAAAAAAAAAAAAAAAAAAAAAAAAAAAAAAAAAAAAAAAAAA",
"AAAAAAAAAAAAAAAAv7@XXXXXXXXXXXXXX.o>gCAAAAAAAAA9.X.eAAm%XXXXXX+s1.XXXXXXXX%g=.X.qAAAAAAAAAAAAAAAAAAAAAAAAAAAAAAAAAAAAAAAAAAAAAAA",
"AAAAAAAAAAAAAAMr%XXXXXXXXXXXXXXXX*uNAAAAAAAAAAV1.X.tAAM&.XXXXXX,d@XXXXXXXXX7uoX.8AAAAAAAAAAAAAAAAAAAAAAAAAAAAAAAAAAAAAAAAAAAAAAA",
"AAAAAAAAAAAAAM<XXXXXXXXXXXXXXX.#9bAAAAAAAAAAAAN=.XXtAAM&.XXXXXXoy8.XXXXXXX.@d<..3CAAAAAAAAAAAAAAAAAAAAAAAAAAAAAAAAAAAAAAAAAAAAAA",
"AAAAAAAAAAAAApXXXXXXXXXXXXXX.O3lZAAAAAAAAAAAAAM&.X.tAAN&XXXXXXX.=f&XXXXXXXX.1s+X=NAAAAAAAAAAAAAAAAAAAAAAAAAAAAAAAAAAAAAAAAAAAAAA",
"AAAAAAAAAAAAAl@XXXXXXXXXXXXo;dVAAAAAAAAAAAAAAAx@XX.tAAN%.XXXXXXXX0rXXXXXXXXXoi6.@nAAAAAAAAAAAAAAAAAAAAAAAAAAAAAAAAAAAAAAAAAAAAAA",
"AAAAAAAAAAAAAZ8.XXXXXXXXXX%tNAAAAAAAAAAAAAAAAAaoXX.wBBv$.XXXXXXX.$f:.XXXXXXX.-g%+zAAAAAAAAAAAAAAAAAAAAAAAAAAAAAAAAAAAAAAAAAAAAAA",
"AAAAAAAAAAAAAAv%XXXXXX..@7vAAAAAAAAAAAAAAAAAAAr.XXX$-==oXXXXXXXXX.4pOXXXXXXXXXweoaAAAAAAAAAAAAAAAAAAAAAAAAAAAAAAAAAAAAAAAAAAAAAA",
"AAAAAAAAAAAAAAArXXXXX.o1kZAAAAAAAAAAAAAAAAAAAA0.XXXX...XXXXXXXXXX.+a2.XXXXXXX.%g-qAAAAAAAAAAAAAAAAAAAAAAAAAAAAAAAAAAAAAAAAAAAAAA",
"AAAAAAAAAAAAAAAN:.XXX-aVAAAAAAAAAAAAAAAAAAAAAV,.XXXXXXXXXXXXXXXXXX.>d#XXXXXXXX.5y8ZAAAAAAAAAAAAAAAAAAAAAAAAAAAAAAAAAAAAAAAAAAAAA",
"AAAAAAAAAAAAAAAM3.X$wmAAAAAAAAAAAAAAAAAAAAAAAM&XXXXXXXXXXXXXXXXXXXXXt9XXXXXXXXX+ayBAAAAAAAAAAAAAAAAAAAAAAAAAAAAAAAAAAAAAAAAAAAAA",
"AAAAAAAAAAAAACs;o+6cAAAAAAAAAAAAAAAAAAAAAAAAAb$.XXXXXXXXXXXXX#%oXXXX*g&.XXXXXXX.,lVAAAAAAAAAAAAAAAAAAAAAAAAAAAAAAAAAAAAAAAAAAAAA",
"AAAAAAAAAAAAAM=X<hCAAAAAAAAAAAAAAAAAAAAAAAAAAdO.XXXXXXXXXXX.>vm8XXXX.9yXXXXXXXXXouAAAAAAAAAAAAAAAAAAAAAAAAAAAAAAAAAAAAAAAAAAAAAA",
"AAAAAAAAAAAAAAsiBAAAAAAAAAAAAAAAAAAAAAAAAAAAAe.XXXXXXXXXXXXXyAAb#XXX.#d,XXXXXXXX.*bAAAAAAAAAAAAAAAAAAAAAAAAAAAAAAAAAAAAAAAAAAAAA",
"AAAAAAAAAAAAAAAAAAAAAAAAAAAAAAAAAAAAAAAAAAAAA0.XXXXXXXXXXXXXuAAM%.XXX.3aOXXXXXXXXX9ZAAAAAAAAAAAAAAAAAAAAAAAAAAAAAAAAAAAAAAAAAAAA",
"AAAAAAAAAAAAAAAAAAAAAAAAAAAAAAAAAAAAAAAAAAAAB;.XXXXXXXXXXXXXyAAN%XXXXXOp4XXXXXXXXX#zAAAAAAAAAAAAAAAAAAAAAAAAAAAAAAAAAAAAAAAAAAAA",
"AAAAAAAAAAAAAAAAAAAAAAAAAAAAAAAAAAAAAAAAAAAAm#XXXXXXXXXXXXXXuAAM$XXXXX.:d$.XXXXXXX.3CAAAAAAAAAAAAAAAAAAAAAAAAAAAAAAAAAAAAAAAAAAA",
"AAAAAAAAAAAAAAAAAAAAAAAAAAAAAAAAAAAAAAAAAAAAz@XXXXXXXXXXXXXXuAAM%.XXXXXXr0XXXXXXXXXOdAAAAAAAAAAAAAAAAAAAAAAAAAAAAAAAAAAAAAAAAAAA",
"AAAAAAAAAAAAAAAAAAAAAAAAAAAAAAAAAAAAAAAAAAAAt.XXXXXXXXXXXXXXrNNc$.XXXXX.%f=XXXXXXXX.:MAAAAAAAAAAAAAAAAAAAAAAAAAAAAAAAAAAAAAAAAAA",
"AAAAAAAAAAAAAAAAAAAAAAAAAAAAAAAAAAAAAAAAAAAA0.XXXXXXXXXXXXXX@&&%oXXXXXXXX8yoXXXXXXXXoyAAAAAAAAAAAAAAAAAAAAAAAAAAAAAAAAAAAAAAAAAA",
"AAAAAAAAAAAAAAAAAAAAAAAAAAAAAAAAAAAAAAAAAAAV,.XXXXXXXXXXXXXXX. .X.XXXXXXX@s,.XXXXXXX.&vAAAAAAAAAAAAAAAAAAAAAAAAAAAAAAAAAAAAAAAAA",
"AAAAAAAAAAAAAAAAAAAAAAAAAAAAAAAAAAAAAAAAAAAn$.XXXXXXXXXXXXX.o:qytq=oXXXXX.1a+XXXXXXXXX8ZAAAAAAAAAAAAAAAAAAAAAAAAAAAAAAAAAAAAAAAA",
"AAAAAAAAAAAAAAAAAAAAAAAAAAAAAAAAAAAAAAAAAAAl+XXXXXXXXXXXXX.@yNAAAAMw+XXXXXOu6.XXXXXXXX#kAAAAAAAAAAAAAAAAAAAAAAAAAAAAAAAAAAAAAAAA",
"AAAAAAAAAAAAAAAAAAAAAAAAAAAAAAAAAAAAAAAAAAAt.XXXXXXXXXXXXX+aAAAAAAAZtoXXXX.-g$.XXXXXXX.2VAAAAAAAAAAAAAAAAAAAAAAAAAAAAAAAAAAAAAAA",
"AAAAAAAAAAAAAAAAAAAAAAAAAAAAAAAAAAAAAAAAAAA7.XXXXo+XXXXXoX7CAAAAAAAAV1.XXXXXwwXXXXXXXXXoaAAAAAAAAAAAAAAAAAAAAAAAAAAAAAAAAAAAAAAA",
"AAAAAAAAAAAAAAAAAAAAAAAAAAAAAAAAAAAAAAAAAAB;.XX.&ph1XXXXX+jAAAAAAAAAAaoXXXXX%g-XXXXXXXX.;MAAAAAAAAAAAAAAAAAAAAAAAAAAAAAAAAAAAAAA",
"AAAAAAAAAAAAAAAAAAAAAAAAAAAAAAAAAAAAAAAAAAv#.XX.wAAx@XXXX&MAAAAAAAAAAn$.XXXXX6ioXXXXXXXXXeAAAAAAAAAAAAAAAAAAAAAAAAAAAAAAAAAAAAAA",
"AAAAAAAAAAAAAAAAAAAAAAAAAAAAAAAAAAAAAAAAAAsOXXXXuAAn#.XX.-BAAAAAAAAAAm$.XXXXX+s1.XXXXXXXX%xAAAAAAAAAAAAAAAAAAAAAAAAAAAAAAAAAAAAA",
"AAAAAAAAAAAAAAAAAAAAAAAAAAAAAAAAAAAAAAAAAAq.XXXXyAAn@.XXX-BAAAAAAAAAAm$.XXXXXX<s@XXXXXXXX.7ZAAAAAAAAAAAAAAAAAAAAAAAAAAAAAAAAAAAA",
"AAAAAAAAAAAAAAAAAAAAAAAAAAAAAAAAAAAAAAAAAC1.XXXXyAAn#XXXX;NAAAAAAAAAAm$.XXXXXXou7.XXXXXXXX@hAAAAAAAAAAAAAAAAAAAAAAAAAAAAAAAAAAAA",
"AAAAAAAAAAAAAAAAAAAAAAAAAAAAAAAAAAAAAAAAAm%.XXXXuAAn#XXX.;BAAAAAAAAAAM$.XXXXXX.=f&.XXXXXXX.<BAAAAAAAAAAAAAAAAAAAAAAAAAAAAAAAAAAA",
"AAAAAAAAAAAAAAAAAAAAAAAAAAAAAAAAAAAAAAAAAhOXXXXXyAAb@.XX.-NAAAAAAAAAAM$XXXXXXXXX0roXXXXXX=%opAAAAAAAAAAAAAAAAAAAAAAAAAAAAAAAAAAA",
"AAAAAAAAAAAAAAAAAAAAAAAAAAAAAAAAAAAAAAAAAr.XXXXX:774OXXXX-BAAAAAAAAAAm$.XXXXXXX.$f:XXX.%rMpo=nAAAAAAAAAAAAAAAAAAAAAAAAAAAAAAAAAA",
"AAAAAAAAAAAAAAAAAAAAAAAAAAAAAAAAAAAAAAAAC2.XXXXXX ..XXXX.-BAAAAAAAAAAm$.XXXXXXXX.4p+.@8cZAV<&lAAAAAAAAAAAAAAAAAAAAAAAAAAAAAAAAAA",
"AAAAAAAAAAAAAAAAAAAAAAAAAAAAAAAAAAAAAAAAM&XXXXXXXXXXXXXX.;NAAAAAAAAAAM$.XXXXXXXXX+tsedgVAAAvvAAAAAAAAAAAAAAAAAAAAAAAAAAAAAAAAAAA",
"AAAAAAAAAAAAAAAAAAAAAAAAAAAAAAAAAAAAAAAAj+XXXXXXXXXXXXXXX;BAAAAAAAAAAm$XXXXXXXXXXX+30,&bAAAAAAAAAAAAAAAAAAAAAAAAAAAAAAAAAAAAAAAA",
"AAAAAAAAAAAAAAAAAAAAAAAAAAAAAAAAAAAAAAAAt.XXXXXXXXXXXXXX.;BAAAAAAAAAAm$.XXXXXXXXXXX. .oaAAAAAAAAAAAAAAAAAAAAAAAAAAAAAAAAAAAAAAAA",
"AAAAAAAAAAAAAAAAAAAAAAAAAAAAAAAAAAAAAAAC2.XXXXXXXXXXXXXX.;NAAAAAAAAAAm$.XXXXXXXXXXXXXX.0AAAAAAAAAAAAAAAAAAAAAAAAAAAAAAAAAAAAAAAA",
"AAAAAAAAAAAAAAAAAAAAAAAAAAAAAAAAAAAAAAAM&.XXXXXXXXXXXXXXX;BAAAAAAAAAAM$XXXXXXXXXXXXXXX.:BAAAAAAAAAAAAAAAAAAAAAAAAAAAAAAAAAAAAAAA",
"AAAAAAAAAAAAAAAAAAAAAAAAAAAAAAAAAAAAAAAhOX.XXX....XX..XX.$riuiuuuiuuir+.X..X.X...XX.X..@vAAAAAAAAAAAAAAAAAAAAAAAAAAAAAAAAAAAAAAA",
"AAAAAAAAAAAAAAAAAAAAAAAAAAAAAAAAAAAAAAAi%%%%&%%&%%%%%%%%%%&%&%%&&&&&&&%&%%%&%&%&%%%&%&%*fAAAAAAAAAAAAAAAAAAAAAAAAAAAAAAAAAAAAAAA",
"AAAAAAAAAAAAAAAAAAAAAAAAAAAAAAAAAAAAAZCMbbnbbbnbbnnbbnnbnbnbbnnbbbnbbbnbbnnbnbnbnbnbnbnbNCZAAAAAAAAAAAAAAAAAAAAAAAAAAAAAAAAAAAAA",
"AAAAAAAAAAAAAAAAAAAAAAAAAAAAAAAAAAAAAd1122221221221212212122212222122122221212122122212123xAAAAAAAAAAAAAAAAAAAAAAAAAAAAAAAAAAAAA",
"AAAAAAAAAAAAAAAAAAAAAAAAAAAAAAAAAAAAAr ..X.......................X.......................OhAAAAAAAAAAAAAAAAAAAAAAAAAAAAAAAAAAAAA",
"AAAAAAAAAAAAAAAAAAAAAAAAAAAAAAAAAAAAAt.XXXXXXXXXXXXXXXXXXXXXXXXXXXXXXXXXXXXXXXXXXXXXXXXXX+hAAAAAAAAAAAAAAAAAAAAAAAAAAAAAAAAAAAAA",
"AAAAAAAAAAAAAAAAAAAAAAAAAAAAAAAAAAAAAt.XXXXXXXXXXXXXXXXXXXXXXXXXXXXXXXXXXXXXXXXXXXXXXXX.X+hAAAAAAAAAAAAAAAAAAAAAAAAAAAAAAAAAAAAA",
"AAAAAAAAAAAAAAAAAAAAAAAAAAAAAAAAAAAAAr ....... ............. ......... .......... ... ...OgAAAAAAAAAAAAAAAAAAAAAAAAAAAAAAAAAAAAA",
"AAAAAAAAAAAAAAAAAAAAAAAAAAAAAAAAAAAAAj8888888888888888888888888888888888888888888888888879vAAAAAAAAAAAAAAAAAAAAAAAAAAAAAAAAAAAAA",
"AAAAAAAAAAAAAAAAAAAAAAAAAAAAAAAAAAAAAAAZAZAZZAAAZAAZZAZAZAAAZAAZAZAZZAAAZAAZZAZAAAAZAZAAAAAAAAAAAAAAAAAAAAAAAAAAAAAAAAAAAAAAAAAA",
"AAAAAAAAAAAAAAAAAAAAAAAAAAAAAAAAAAAAAAAAAAAAAAAAAAAAAAAAAAAAAAAAAAAAAAAAAAAAAAAAAAAAAAAAAAAAAAAAAAAAAAAAAAAAAAAAAAAAAAAAAAAAAAAA",
"AAAAAAAAAAAAAAAAAAAAAAAAAAAAAAAAAAAAAAAAAAAAAAAAAAAAAAAAAAAAAAAAAAAAAAAAAAAAAAAAAAAAAAAAAAAAAAAAAAAAAAAAAAAAAAAAAAAAAAAAAAAAAAAA",
"AAAAAAAAAAAAAAAAAAAAAAAAAAAAAAAAAAAAAAAAAAAAAAAAAAAAAAAAAAAAAAAAAAAAAAAAAAAAAAAAAAAAAAAAAAAAAAAAAAAAAAAAAAAAAAAAAAAAAAAAAAAAAAAA",
"AAAAAAAAAAAAAAAAAAAAAAAAAAAAAAAAAAAAAAAAAAAAAAAAAAAAAAAAAAAAAAAAAAAAAAAAAAAAAAAAAAAAAAAAAAAAAAAAAAAAAAAAAAAAAAAAAAAAAAAAAAAAAAAA",
"AAAAAAAAAAAAAAAAAAAAAAAAAAAAAAAAAAAAAAAAAAAAAAAAAAAAAAAAAAAAAAAAAAAAAAAAAAAAAAAAAAAAAAAAAAAAAAAAAAAAAAAAAAAAAAAAAAAAAAAAAAAAAAAA"
};
